# xmcd
#
# Track frame offsets:
#	150
#	11733
#	22913
#	33160
#	41642
#	54270
#	65699
#	76702
#	88121
#	98852
#	110574
#	122463
#	132859
#	146327
#	157785
#	167566
#	178491
#	191287
#	201170
#	222647
#	235065
#	249852
#	260215
#	273248
#	285217
#	297515
#	309435
#	320344
#
# Disc length: 4413 seconds
#
# Revision: 1
# Processed by: cddbd v1.5.2PL0 Copyright (c) Steve Scherf et al.
# Submitted via: audiograbber 1.83.01
#
DISCID=82113b1c
DTITLE=Various Artist - Porky Sounds
DYEAR=1900
DGENRE=Oldies
TTITLE0=Lester Robinson - My Girl Across Town
TTITLE1=Anna Belle Caesar - Little Annie
TTITLE2=Ben Harper - Driveway Blues
TTITLE3=Boozoo Chavis - Hamburger's and Popcorn
TTITLE4=Bubber Johnson - Come Home
TTITLE5=Cashmeres - Boom Mag-Azeno Vip Vay
TTITLE6=Chips - Oh My Darlin'
TTITLE7=Danderliers - My Autumn Love
TTITLE8=Delcos - Arabia
TTITLE9=Dells - What You Say Baby
TTITLE10=Destineers - Take a Look
TTITLE11=Five Discs - The World is a Beautiful Place
TTITLE12=Flyers - My Only Desire
TTITLE13=Frank Motley - Yeah Let's Fly
TTITLE14=Guytones - Ooh Bop Sha Boo
TTITLE15=Heartbeats - Oh Baby Don't
TTITLE16=Heartbeats - Rockin-N-Rollin-N-Rhyrhn-N-Blues'-N-
TTITLE17=Hide A Ways - Me Make Em Pow Wow
TTITLE18=Joe Turner - Can't Read Can't Write
TTITLE19=Lonnie And The Crisis - Bells in The Chapel
TTITLE20=Robins - How Would You Know
TTITLE21=Saxons - Is It True
TTITLE22=Solitaires - Later For You Baby
TTITLE23=Strangers - Without a Friend
TTITLE24=Tiny Bradshaw - The Train Kept a Rollin'
TTITLE25=Tymes - Roscoe James Mc Clain
TTITLE26=Versatiles - Whisper in Your Ear
TTITLE27=Wynonie Harris - Lovin' Machine
EXTD=
EXTT0=
EXTT1=
EXTT2=
EXTT3=
EXTT4=
EXTT5=
EXTT6=
EXTT7=
EXTT8=
EXTT9=
EXTT10=
EXTT11=
EXTT12=
EXTT13=
EXTT14=
EXTT15=
EXTT16=
EXTT17=
EXTT18=
EXTT19=
EXTT20=
EXTT21=
EXTT22=
EXTT23=
EXTT24=
EXTT25=
EXTT26=
EXTT27=
PLAYORDER=
